<?xml version="1.0" standalone="no"?>
<!DOCTYPE svg PUBLIC "-//W3C//DTD SVG 20010904//EN"
 "http://www.w3.org/TR/2001/REC-SVG-20010904/DTD/svg10.dtd">
<svg version="1.0" xmlns="http://www.w3.org/2000/svg"
 width="260.000000pt" height="260.000000pt" viewBox="0 0 260.000000 260.000000"
 preserveAspectRatio="xMidYMid meet">
<metadata>
Created by potrace 1.14, written by Peter Selinger 2001-2017
</metadata>
<g transform="translate(0.000000,260.000000) scale(0.100000,-0.100000)"
fill="#000000" stroke="none">
<path d="M1217 2464 c-106 -25 -172 -77 -211 -164 -44 -97 -44 -118 -3 -205
29 -61 55 -94 127 -166 76 -75 91 -94 88 -117 -4 -35 -30 -39 -69 -11 -40 28
-66 27 -123 -6 -46 -27 -133 -116 -154 -158 -31 -63 -70 -178 -76 -227 -8 -66
-38 -164 -74 -244 -29 -63 -47 -90 -101 -152 l-35 -39 -247 0 c-239 0 -248 -1
-271 -21 -13 -12 -33 -25 -45 -29 -22 -6 -23 -12 -23 -101 0 -52 4 -94 9 -94
5 0 32 -20 60 -43 28 -24 77 -56 108 -71 32 -15 74 -36 94 -46 19 -10 53 -22
75 -25 21 -4 64 -18 94 -30 76 -31 285 -51 480 -46 181 5 519 5 775 2 198 -3
401 16 452 43 17 8 53 20 79 26 88 18 236 93 302 152 29 27 57 48 62 48 6 0
10 37 10 90 0 76 -3 90 -16 90 -9 0 -29 11 -45 24 -25 21 -42 25 -141 30 -62
4 -167 3 -233 -2 -66 -5 -130 -5 -141 -1 -29 10 -107 103 -139 164 -38 73 -82
212 -93 293 -6 38 -17 80 -25 93 -9 13 -20 43 -26 65 -26 97 -170 234 -246
234 -14 0 -43 -10 -64 -22 -21 -12 -45 -19 -54 -15 -36 14 -16 48 81 145 77
76 105 112 130 166 40 85 40 114 1 196 -50 106 -96 143 -216 174 -71 19 -80
19 -156 0z m159 -119 c71 -35 95 -65 105 -126 10 -66 -2 -95 -76 -177 -66 -73
-106 -97 -134 -83 -24 13 -129 127 -152 166 -50 81 6 191 120 231 53 19 81 17
137 -11z m-229 -641 c3 -9 -14 -56 -39 -107 -89 -181 -134 -341 -131 -467 1
-89 34 -243 63 -300 36 -71 10 -78 -95 -24 -38 20 -74 39 -80 43 -5 4 -32 16
-58 25 -26 10 -55 29 -64 42 -17 26 -21 17 64 138 12 17 25 44 28 60 4 16 18
52 31 80 13 28 24 63 24 78 0 49 70 267 105 326 38 66 96 117 138 121 4 1 10
-6 14 -15z m348 -3 c17 -11 40 -28 52 -38 28 -23 103 -168 103 -199 0 -12 9
-42 19 -67 11 -25 22 -71 26 -103 4 -33 18 -80 31 -106 13 -26 24 -55 24 -64
0 -19 68 -134 79 -134 4 0 13 -12 20 -26 17 -37 -6 -67 -66 -90 -26 -10 -59
-25 -73 -34 -45 -30 -137 -70 -158 -70 -28 0 -28 19 -1 64 31 54 71 258 65
336 -9 125 -68 307 -146 454 -51 96 -43 120 25 77z m-128 -141 c29 -58 57
-123 63 -145 6 -22 20 -58 31 -81 16 -34 19 -63 19 -195 0 -129 -3 -161 -19
-195 -10 -23 -22 -55 -26 -72 -8 -39 -76 -117 -113 -130 -65 -22 -137 46 -184
174 -24 65 -30 100 -35 199 -5 111 -3 126 21 198 14 42 26 82 26 87 0 6 19 50
41 98 23 48 50 106 60 130 15 35 23 43 41 40 18 -2 35 -26 75 -108z m-983
-700 c14 -5 32 -23 41 -40 27 -52 55 -57 126 -25 l61 27 79 -31 c111 -44 345
-157 354 -171 4 -6 1 -18 -6 -26 -21 -26 -384 -15 -504 15 -118 30 -212 65
-308 114 -92 48 -113 71 -93 102 7 11 24 26 37 32 28 15 177 17 213 3z m2040
-4 c38 -16 50 -46 30 -74 -30 -43 -235 -131 -399 -173 -75 -19 -123 -23 -290
-26 -279 -5 -292 11 -88 108 71 33 168 76 217 96 l89 35 58 -28 c68 -32 97
-26 124 25 8 17 23 35 32 40 27 16 188 13 227 -3z"/>
</g>
</svg>
